# xmcd CD database file
#
# Track frame offsets:
#	150
#	13725
#	31838
#	47000
#	66563
#	79125
#	96038
#	114213
#	128488
#	143550
#	153938
#	165313
#
# Disc length: 2398 seconds
#
# Revision: 0
# Processed by: cddbd v1.4PL0 Copyright (c) Steve Scherf et al.
# Submitted via: CDex 1.51
#
DISCID=89095c0c
DTITLE=Various Artist - Vocal - Woman (Jazz Special Sellection-23)
DYEAR=2001
DGENRE=Jazz
TTITLE0=My Funny Valentine
TTITLE1=Someone To Watch Over Me
TTITLE2=When I Fall In Love
TTITLE3=You'de Be So Nice To Come Home To
TTITLE4=I Remember You
TTITLE5=All Of Me
TTITLE6=Lullaby Of Birdland
TTITLE7=Day By Day
TTITLE8=Softly As In A Morning Sunrise
TTITLE9=It Don't Mean Athing (It Ain't Got That Swing)
TTITLE10=What A Difference A Day Made
TTITLE11=Where Or When
EXTD=YEAR: 2001
EXTT0=
EXTT1=
EXTT2=
EXTT3=
EXTT4=
EXTT5=
EXTT6=
EXTT7=
EXTT8=
EXTT9=
EXTT10=
EXTT11=
PLAYORDER=
